<?xml version="1.0" encoding="UTF-8"?><svg xmlns="http://www.w3.org/2000/svg" viewBox="0 0 28.53 27.86"><defs><style>.d{fill:#bbbdbf;}</style></defs><g id="a"/><g id="b"><g id="c"><path class="d" d="M22.61,25.14c-.55-.09-1.17-.05-1.77,.13-1.01,.31-1.8,.91-2.37,1.8-.53,.84-1.36,1.02-2.19,.47-.53-.35-1.11-.59-1.74-.67-.59-.08-1.14,.1-1.67,.33-.21,.09-.41,.19-.59,.33-.78,.6-1.78,.29-2.25-.49-.81-1.31-2.04-1.93-3.58-1.95-.17,0-.33,.03-.5,.04-.86,.05-1.51-.54-1.57-1.4-.13-1.74-1.01-2.98-2.61-3.67-.87-.38-1.18-1.18-.81-2.05,.69-1.59,.5-3.09-.58-4.45-.58-.73-.48-1.6,.25-2.17,1.38-1.09,1.92-2.51,1.6-4.24-.16-.89,.36-1.61,1.24-1.76,1.7-.29,2.87-1.25,3.39-2.9,.28-.89,1.17-1.32,2.03-1.03,1.61,.55,3.06,.2,4.3-.97,.7-.66,1.45-.66,2.16,0,1.25,1.18,2.71,1.5,4.34,.96,.9-.3,1.67,.09,1.96,.99,.55,1.67,1.7,2.65,3.44,2.95,.85,.14,1.38,.88,1.22,1.73-.33,1.77,.23,3.2,1.65,4.3,.66,.51,.77,1.42,.24,2.07-1.12,1.4-1.33,2.92-.6,4.57,.35,.79,.02,1.63-.79,1.97-1.64,.7-2.53,1.95-2.66,3.73-.06,.8-.68,1.38-1.54,1.36Z"/></g></g></svg>